<svg xmlns="http://www.w3.org/2000/svg" version="1.1" xmlns:xlink="http://www.w3.org/1999/xlink" xmlns:svgjs="http://svgjs.dev/svgjs" viewBox="0 0 2400 800" opacity="0.86"><defs><linearGradient x1="50%" y1="0%" x2="50%" y2="100%" id="sssurf-grad"><stop stop-color="hsla(206, 59%, 57%, 1.00)" stop-opacity="1" offset="0%"></stop><stop stop-color="hsl(331, 90%, 56%)" stop-opacity="1" offset="100%"></stop></linearGradient></defs><g fill="url(#sssurf-grad)" transform="matrix(1,0,0,1,9.4296875,149.6965789794922)"><path d="M-10,10C33.75,14.375,114.58333333333334,39.958333333333336,200,31C285.41666666666663,22.041666666666664,316.66666666666663,-38.833333333333336,400,-33C483.33333333333337,-27.166666666666664,516.6666666666666,56.916666666666664,600,59C683.3333333333334,61.083333333333336,716.6666666666666,-21.125,800,-23C883.3333333333334,-24.875,916.6666666666666,46.875,1000,50C1083.3333333333333,53.125,1116.6666666666667,-11.541666666666668,1200,-8C1283.3333333333333,-4.458333333333333,1316.6666666666667,68.875,1400,67C1483.3333333333333,65.125,1516.6666666666667,-14.916666666666666,1600,-17C1683.3333333333333,-19.083333333333332,1716.6666666666667,51.791666666666664,1800,57C1883.3333333333333,62.208333333333336,1916.6666666666667,3.833333333333333,2000,8C2083.3333333333335,12.166666666666668,2116.6666666666665,76.79166666666667,2200,77C2283.3333333333335,77.20833333333333,2306.25,-58.29166666666667,2400,9C2493.75,76.29166666666667,3254.1666666666665,214.375,2650,400C2045.8333333333335,585.625,156.25,795.8333333333334,-500,900" transform="matrix(1,0,0,1,0,62)" opacity="0.05"></path><path d="M-10,10C33.75,14.375,114.58333333333334,39.958333333333336,200,31C285.41666666666663,22.041666666666664,316.66666666666663,-38.833333333333336,400,-33C483.33333333333337,-27.166666666666664,516.6666666666666,56.916666666666664,600,59C683.3333333333334,61.083333333333336,716.6666666666666,-21.125,800,-23C883.3333333333334,-24.875,916.6666666666666,46.875,1000,50C1083.3333333333333,53.125,1116.6666666666667,-11.541666666666668,1200,-8C1283.3333333333333,-4.458333333333333,1316.6666666666667,68.875,1400,67C1483.3333333333333,65.125,1516.6666666666667,-14.916666666666666,1600,-17C1683.3333333333333,-19.083333333333332,1716.6666666666667,51.791666666666664,1800,57C1883.3333333333333,62.208333333333336,1916.6666666666667,3.833333333333333,2000,8C2083.3333333333335,12.166666666666668,2116.6666666666665,76.79166666666667,2200,77C2283.3333333333335,77.20833333333333,2306.25,-58.29166666666667,2400,9C2493.75,76.29166666666667,3254.1666666666665,214.375,2650,400C2045.8333333333335,585.625,156.25,795.8333333333334,-500,900" transform="matrix(1,0,0,1,0,124)" opacity="0.24"></path><path d="M-10,10C33.75,14.375,114.58333333333334,39.958333333333336,200,31C285.41666666666663,22.041666666666664,316.66666666666663,-38.833333333333336,400,-33C483.33333333333337,-27.166666666666664,516.6666666666666,56.916666666666664,600,59C683.3333333333334,61.083333333333336,716.6666666666666,-21.125,800,-23C883.3333333333334,-24.875,916.6666666666666,46.875,1000,50C1083.3333333333333,53.125,1116.6666666666667,-11.541666666666668,1200,-8C1283.3333333333333,-4.458333333333333,1316.6666666666667,68.875,1400,67C1483.3333333333333,65.125,1516.6666666666667,-14.916666666666666,1600,-17C1683.3333333333333,-19.083333333333332,1716.6666666666667,51.791666666666664,1800,57C1883.3333333333333,62.208333333333336,1916.6666666666667,3.833333333333333,2000,8C2083.3333333333335,12.166666666666668,2116.6666666666665,76.79166666666667,2200,77C2283.3333333333335,77.20833333333333,2306.25,-58.29166666666667,2400,9C2493.75,76.29166666666667,3254.1666666666665,214.375,2650,400C2045.8333333333335,585.625,156.25,795.8333333333334,-500,900" transform="matrix(1,0,0,1,0,186)" opacity="0.43"></path><path d="M-10,10C33.75,14.375,114.58333333333334,39.958333333333336,200,31C285.41666666666663,22.041666666666664,316.66666666666663,-38.833333333333336,400,-33C483.33333333333337,-27.166666666666664,516.6666666666666,56.916666666666664,600,59C683.3333333333334,61.083333333333336,716.6666666666666,-21.125,800,-23C883.3333333333334,-24.875,916.6666666666666,46.875,1000,50C1083.3333333333333,53.125,1116.6666666666667,-11.541666666666668,1200,-8C1283.3333333333333,-4.458333333333333,1316.6666666666667,68.875,1400,67C1483.3333333333333,65.125,1516.6666666666667,-14.916666666666666,1600,-17C1683.3333333333333,-19.083333333333332,1716.6666666666667,51.791666666666664,1800,57C1883.3333333333333,62.208333333333336,1916.6666666666667,3.833333333333333,2000,8C2083.3333333333335,12.166666666666668,2116.6666666666665,76.79166666666667,2200,77C2283.3333333333335,77.20833333333333,2306.25,-58.29166666666667,2400,9C2493.75,76.29166666666667,3254.1666666666665,214.375,2650,400C2045.8333333333335,585.625,156.25,795.8333333333334,-500,900" transform="matrix(1,0,0,1,0,248)" opacity="0.62"></path><path d="M-10,10C33.75,14.375,114.58333333333334,39.958333333333336,200,31C285.41666666666663,22.041666666666664,316.66666666666663,-38.833333333333336,400,-33C483.33333333333337,-27.166666666666664,516.6666666666666,56.916666666666664,600,59C683.3333333333334,61.083333333333336,716.6666666666666,-21.125,800,-23C883.3333333333334,-24.875,916.6666666666666,46.875,1000,50C1083.3333333333333,53.125,1116.6666666666667,-11.541666666666668,1200,-8C1283.3333333333333,-4.458333333333333,1316.6666666666667,68.875,1400,67C1483.3333333333333,65.125,1516.6666666666667,-14.916666666666666,1600,-17C1683.3333333333333,-19.083333333333332,1716.6666666666667,51.791666666666664,1800,57C1883.3333333333333,62.208333333333336,1916.6666666666667,3.833333333333333,2000,8C2083.3333333333335,12.166666666666668,2116.6666666666665,76.79166666666667,2200,77C2283.3333333333335,77.20833333333333,2306.25,-58.29166666666667,2400,9C2493.75,76.29166666666667,3254.1666666666665,214.375,2650,400C2045.8333333333335,585.625,156.25,795.8333333333334,-500,900" transform="matrix(1,0,0,1,0,310)" opacity="0.81"></path><path d="M-10,10C33.75,14.375,114.58333333333334,39.958333333333336,200,31C285.41666666666663,22.041666666666664,316.66666666666663,-38.833333333333336,400,-33C483.33333333333337,-27.166666666666664,516.6666666666666,56.916666666666664,600,59C683.3333333333334,61.083333333333336,716.6666666666666,-21.125,800,-23C883.3333333333334,-24.875,916.6666666666666,46.875,1000,50C1083.3333333333333,53.125,1116.6666666666667,-11.541666666666668,1200,-8C1283.3333333333333,-4.458333333333333,1316.6666666666667,68.875,1400,67C1483.3333333333333,65.125,1516.6666666666667,-14.916666666666666,1600,-17C1683.3333333333333,-19.083333333333332,1716.6666666666667,51.791666666666664,1800,57C1883.3333333333333,62.208333333333336,1916.6666666666667,3.833333333333333,2000,8C2083.3333333333335,12.166666666666668,2116.6666666666665,76.79166666666667,2200,77C2283.3333333333335,77.20833333333333,2306.25,-58.29166666666667,2400,9C2493.75,76.29166666666667,3254.1666666666665,214.375,2650,400C2045.8333333333335,585.625,156.25,795.8333333333334,-500,900" transform="matrix(1,0,0,1,0,372)" opacity="1.00"></path></g></svg>