<svg width="128" height="55" viewBox="0 0 128 55" fill="none" xmlns="http://www.w3.org/2000/svg">
<path d="M14.1169 45.592C10.3037 45.4405 7.18392 44.3971 4.74451 42.4592C4.27896 42.089 3.1696 40.9789 2.79742 40.5108C1.80821 39.2669 1.13567 38.0564 0.687096 36.7132C-0.693234 32.5788 0.0171723 27.1534 2.71907 21.1992C5.03246 16.1017 8.60212 11.0459 14.8299 4.0437C15.7473 3.01334 18.4792 0 18.4969 0C18.5034 0 18.3545 0.257912 18.1671 0.571983C16.5478 3.28432 15.1623 6.47918 14.4075 9.24507C13.1949 13.6832 13.3412 17.4918 14.8358 20.4451C15.8668 22.4796 17.6343 24.242 19.6219 25.2162C23.1015 26.921 28.1957 27.062 34.417 25.6288C34.8454 25.5296 56.0701 19.8953 81.5833 13.1079C107.097 6.31986 127.975 0.770476 127.978 0.775045C127.985 0.780932 68.7033 26.1479 37.9292 39.308C33.0556 41.3916 31.7524 41.9179 29.4612 42.7223C23.6042 44.7791 18.3578 45.7605 14.1169 45.592Z" fill="black"/>
<path d="M18.8 13.92H29.264L40.112 48H30.608L28.544 41.328H19.472L17.456 48H7.904L18.8 13.92ZM27.056 35.088L24.032 23.088L20.864 35.088H27.056ZM42.9436 48V13.92H52.3036V48H42.9436ZM58.178 48V13.92H73.826C75.49 13.92 77.026 14.256 78.434 14.928C79.842 15.6 81.058 16.512 82.082 17.664C83.106 18.784 83.89 20.048 84.434 21.456C85.01 22.864 85.298 24.288 85.298 25.728C85.298 27.04 85.106 28.304 84.722 29.52C84.338 30.736 83.778 31.856 83.042 32.88C82.306 33.872 81.426 34.736 80.402 35.472L87.602 48H77.33L71.33 37.536H67.538V48H58.178ZM67.538 29.376H73.442C73.826 29.376 74.194 29.232 74.546 28.944C74.898 28.656 75.186 28.24 75.41 27.696C75.666 27.152 75.794 26.496 75.794 25.728C75.794 24.928 75.65 24.272 75.362 23.76C75.106 23.216 74.77 22.8 74.354 22.512C73.97 22.224 73.586 22.08 73.202 22.08H67.538V29.376Z" fill="white"/>
</svg>
